# xmcd
#
# Track frame offsets: 
#        150
#        13118
#        27813
#        49238
#        61448
#        78685
#        95428
#        117020
#        130281
#        148113
#        161721
#        192359
#
# Disc length: 2727 seconds
#
# Revision: 1
# Processed by: cddbd v1.5.2PL0 Copyright (c) Steve Scherf et al.
# Submitted via: ExactAudioCopy v1.0b4
#
DISCID=a70aa50c
DTITLE=Susan Tedeschi - Hope And Desire
DYEAR=2005
DGENRE=Blues
TTITLE0=You Got The Silver
TTITLE1=Soul Of A Man
TTITLE2=Lord Protect My Child
TTITLE3=Tired Of My Tears
TTITLE4=Share Your Love With Me
TTITLE5=Evidence
TTITLE6=Sweet Forgiveness
TTITLE7=Security
TTITLE8=Loving You Is Sweeter Than Ever
TTITLE9=Magnificent Sanctuary Band
TTITLE10=Follow
TTITLE11=The Danger Zone
EXTD=
EXTT0=
EXTT1=
EXTT2=
EXTT3=
EXTT4=
EXTT5=
EXTT6=
EXTT7=
EXTT8=
EXTT9=
EXTT10=
EXTT11=
PLAYORDER=
